<svg height="496pt" viewBox="0 0 496 496" width="496pt" xmlns="http://www.w3.org/2000/svg"><path d="m456 488h-416c-17.671875 0-32-14.328125-32-32v-32h480v32c0 17.671875-14.328125 32-32 32zm0 0" fill="#64656a"/><path d="m464 456v-32h-456v32c0 17.671875 14.328125 32 32 32h392c17.671875 0 32-14.328125 32-32zm0 0" fill="#95989e"/><path d="m176 424v16c0 8.839844 7.160156 16 16 16h112c8.839844 0 16-7.160156 16-16v-16" fill="#dddfe5"/><path d="m296 440v-16h-120v16c0 8.839844 7.160156 16 16 16h88c8.839844 0 16-7.160156 16-16zm0 0" fill="#e9eaed"/><path d="m472 424h-448v-272c0-8.839844 7.160156-16 16-16h416c8.839844 0 16 7.160156 16 16zm0 0" fill="#c7cad3"/><path d="m56 168h384v224h-384zm0 0" fill="#67cbf5"/><path d="m56 168h360v224h-360zm0 0" fill="#99ddf8"/><path d="m96 72h304v192h-304zm0 0" fill="#ccc"/><path d="m96 72h280v192h-280zm0 0" fill="#e6e6e6"/><path d="m96 8h304v64h-304zm0 0" fill="#5c9150"/><path d="m96 8h280v64h-280zm0 0" fill="#7ac16a"/><path d="m456 496h-416c-22.054688 0-40-17.945312-40-40v-32c0-4.425781 3.574219-8 8-8h480c4.425781 0 8 3.574219 8 8v32c0 22.054688-17.945312 40-40 40zm-440-64v24c0 13.230469 10.769531 24 24 24h416c13.230469 0 24-10.769531 24-24v-24zm0 0"/><path d="m304 464h-112c-13.230469 0-24-10.769531-24-24v-16h16v16c0 4.414062 3.585938 8 8 8h112c4.414062 0 8-3.585938 8-8v-16h16v16c0 13.230469-10.769531 24-24 24zm0 0"/><path d="m480 424h-16v-272c0-4.414062-3.585938-8-8-8h-56v-16h56c13.230469 0 24 10.769531 24 24zm0 0"/><path d="m32 424h-16v-272c0-13.230469 10.769531-24 24-24h56v16h-56c-4.414062 0-8 3.585938-8 8zm0 0"/><path d="m440 400h-384c-4.425781 0-8-3.574219-8-8v-224c0-4.425781 3.574219-8 8-8h40v16h-32v208h368v-208h-32v-16h40c4.425781 0 8 3.574219 8 8v224c0 4.425781-3.574219 8-8 8zm0 0"/><path d="m400 272h-304c-4.425781 0-8-3.574219-8-8v-256c0-4.425781 3.574219-8 8-8h304c4.425781 0 8 3.574219 8 8v256c0 4.425781-3.574219 8-8 8zm-296-16h288v-240h-288zm0 0"/><path d="m96 64h304v16h-304zm0 0"/><path d="m120 32h16v16h-16zm0 0"/><path d="m152 32h16v16h-16zm0 0"/><path d="m184 32h16v16h-16zm0 0"/><path d="m312 32h64v16h-64zm0 0"/><path d="m200 184h-72c-4.425781 0-8-3.574219-8-8v-64h16v56h64zm0 0"/><path d="m168 128h16v96h-16zm0 0"/><path d="m376 184h-72c-4.425781 0-8-3.574219-8-8v-64h16v56h64zm0 0"/><path d="m344 128h16v96h-16zm0 0"/><path d="m272 224h-48c-4.425781 0-8-3.574219-8-8v-96c0-4.425781 3.574219-8 8-8h48c4.425781 0 8 3.574219 8 8v96c0 4.425781-3.574219 8-8 8zm-40-16h32v-80h-32zm0 0"/></svg>